<mxfile host="app.diagrams.net" modified="2023-09-09T11:03:06.461Z" agent="Mozilla/5.0 (Macintosh; Intel Mac OS X 10_15_7) AppleWebKit/605.1.15 (KHTML, like Gecko) Version/15.4 Safari/605.1.15" version="21.7.4" etag="jVdI3f_EiSmP15hOhn-k" type="github">
  <diagram name="Page-1" id="zXuxG_PY4o0CoEBnT0-l">
    <mxGraphModel>
      <root>
        <mxCell id="0" />
        <mxCell id="1" parent="0" />
      </root>
    </mxGraphModel>
  </diagram>
</mxfile>
